<svg color='white' width="16" height="24" xmlns="http://www.w3.org/2000/svg" xmlns:xlink="http://www.w3.org/1999/xlink" overflow="hidden"><defs><clipPath id="clip0"><rect x="824" y="244" width="16" height="24"/></clipPath></defs><g clip-path="url(#clip0)" transform="translate(-824 -244)"><path d="M832.46 248.077C830.77 248.077 829.399 249.477 829.399 251.203 829.399 252.93 830.77 254.329 832.46 254.329 834.151 254.329 835.522 252.93 835.522 251.203 835.522 249.477 834.151 248.077 832.46 248.077ZM832.5 244C836.642 244 840 247.429 840 251.659 840 253.245 839.528 254.718 838.719 255.941L838.361 256.43 832.561 267 826.551 256.309 826.281 255.941C825.472 254.718 825 253.245 825 251.659 825 247.429 828.358 244 832.5 244Z" fill-rule="evenodd"/></g></svg>