<svg width="24" height="24" xmlns="http://www.w3.org/2000/svg" xmlns:xlink="http://www.w3.org/1999/xlink" overflow="hidden"><defs><clipPath id="clip0"><rect x="824" y="313" width="24" height="24"/></clipPath></defs><g clip-path="url(#clip0)" transform="translate(-824 -313)"><path d="M838.642 327.335C838.916 327.301 839.198 327.428 839.345 327.679L842.435 332.944C842.632 333.279 842.516 333.708 842.176 333.902L840.544 334.835C840.205 335.029 839.77 334.915 839.573 334.58L836.483 329.316C836.287 328.981 836.403 328.552 836.742 328.357L838.374 327.424C838.459 327.376 838.55 327.346 838.642 327.335ZM843.356 315.385C845.368 315.385 847 316.992 847 318.974 847 320.956 845.368 322.562 843.356 322.562 841.343 322.562 839.711 320.956 839.711 318.974 839.711 316.992 841.343 315.385 843.356 315.385ZM827.608 315.11 830.842 320.674C828.953 321.897 830.145 325.183 831.007 326.683 831.912 328.183 834.038 330.659 836.042 329.522L839.281 335.072C837.62 336.068 837.111 335.97 836.519 336 835.686 335.988 834.712 335.452 834.171 335.1 831.577 333.533 824.81 325.181 825.004 318.34 825.028 317.52 825.363 316.923 825.68 316.531 826.109 316.014 826.927 315.491 827.608 315.11ZM830.294 313.005C830.568 312.971 830.85 313.098 830.997 313.35L834.087 318.614C834.284 318.949 834.168 319.378 833.829 319.573L832.196 320.506C831.857 320.7 831.422 320.586 831.225 320.251L828.135 314.986C827.939 314.651 828.055 314.222 828.394 314.028L830.026 313.095C830.111 313.046 830.202 313.017 830.294 313.005Z" fill-rule="evenodd"/></g></svg>