<svg width="22" height="17" xmlns="http://www.w3.org/2000/svg" xmlns:xlink="http://www.w3.org/1999/xlink" overflow="hidden"><defs><clipPath id="clip0"><rect x="821" y="374" width="22" height="17"/></clipPath></defs><g clip-path="url(#clip0)" transform="translate(-821 -374)"><path d="M830.318 383.856 825.278 388.887 839.646 388.88 834.703 383.924 832.83 385.799C832.652 385.992 832.415 385.947 832.262 385.805ZM841.783 376.847 835.494 383.134 841.226 388.861C841.522 388.767 841.807 388.523 841.775 387.736 841.758 383.983 841.8 380.6 841.783 376.847ZM823.241 376.788C823.224 380.54 823.266 383.923 823.249 387.676 823.217 388.463 823.502 388.707 823.798 388.801L829.529 383.074ZM824.21 376.184 832.201 384.167C832.287 384.241 832.283 384.327 832.566 384.352 832.781 384.309 832.817 384.241 832.906 384.132L840.862 376.184ZM824.238 375 840.762 375C841.998 375 843 376.002 843 377.238L843 387.762C843 388.998 841.998 390 840.762 390L824.238 390C823.002 390 822 388.998 822 387.762L822 377.238C822 376.002 823.002 375 824.238 375Z" fill-rule="evenodd"/></g></svg>